<?xml version="1.0" encoding="UTF-8"?>
<svg width="256px" height="256px" viewBox="0 -25 256 256" fill="white" version="1.1" xmlns="http://www.w3.org/2000/svg" xmlns:xlink="http://www.w3.org/1999/xlink" preserveAspectRatio="xMidYMid">
    <path
        d="M1 9.49723C1 5.43964 4.08571 1.77472 8.07143 1.12027C12.7 0.33493 16.9429 3.47629 17.5857 8.18833C17.9714 10.4135 17.4571 12.5077 16.1714 14.4711C14.1143 17.7433 11.9286 21.0156 9.87143 24.2878C9.74286 24.4187 9.74286 24.6805 9.48571 24.6805C9.1 24.8114 8.84286 24.6805 8.71429 24.4187C7.94286 23.1098 7.04286 21.8009 6.27143 20.492C4.98571 18.3978 3.57143 16.4344 2.28571 14.3402C1.51429 12.7695 1 11.0679 1 9.49723ZM9.35714 11.9841C11.2857 12.115 12.8286 10.4135 12.7 8.581C12.7 6.61765 11.0286 5.17786 9.1 5.17786C7.42857 5.17786 6.01429 6.87943 6.01429 8.71189C6.14286 10.5444 7.55714 11.9841 9.35714 11.9841Z"
        fill="white" stroke="#222D71" stroke-miterlimit="10"></path>
</svg>