<?xml version="1.0" encoding="utf-8"?>
<!-- Generator: Adobe Illustrator 17.0.0, SVG Export Plug-In . SVG Version: 6.00 Build 0)  -->
<!DOCTYPE svg PUBLIC "-//W3C//DTD SVG 1.1//EN" "http://www.w3.org/Graphics/SVG/1.1/DTD/svg11.dtd">
<svg version="1.1" id="Layer_1" xmlns="http://www.w3.org/2000/svg" xmlns:xlink="http://www.w3.org/1999/xlink" x="0px" y="0px"
	 width="451px" height="249.58px" viewBox="0 0 451 249.58" enable-background="new 0 0 451 249.58" xml:space="preserve">
<path fill="#A6CE39" d="M5.59-98.945c0-27.032,10.958-51.509,28.68-69.225c17.711-17.712,42.186-28.676,69.218-28.676h123.159
	h123.147c27.037,0,51.508,10.964,69.234,28.676c17.706,17.717,28.665,42.193,28.665,69.225V24.208v123.154
	c0,27.031,0,97.901,0,97.901s-70.862,0-97.899,0H226.648H103.489c-27.033,0-51.508-10.962-69.218-28.675
	c-17.722-17.717-28.68-42.195-28.68-69.226V24.208L5.59-98.945L5.59-98.945z"/>
<rect x="83.017" y="99.134" fill="#FFFFFF" width="9.763" height="89.44"/>
<path fill="#FFFFFF" d="M125.968,158.07c-8.38,0-15.496-2.929-21.355-8.785c-5.854-5.857-8.784-12.975-8.784-21.353
	c0-8.459,2.929-15.637,8.784-21.538c5.858-5.897,12.973-8.846,21.355-8.846c8.377,0,15.496,2.948,21.355,8.846
	c5.858,5.901,8.787,13.079,8.787,21.538c0,8.377-2.929,15.496-8.787,21.353S134.345,158.07,125.968,158.07z M125.968,106.578
	c-5.94,0-10.818,2.054-14.641,6.162c-3.827,4.108-5.737,9.131-5.737,15.069s1.91,10.964,5.737,15.069
	c3.824,4.108,8.701,6.162,14.641,6.162c5.936,0,10.818-2.054,14.645-6.162c3.819-4.104,5.733-9.131,5.733-15.069
	s-1.914-10.96-5.733-15.069C136.785,108.632,131.904,106.578,125.968,106.578z"/>
<path fill="#FFFFFF" d="M159.281,156.484V55.817h9.759v51.492c4.987-6.507,11.571-9.759,19.749-9.759
	c8.338,0,15.125,3.011,20.358,9.03c4.905,5.776,7.358,12.853,7.358,21.231c0,8.297-2.491,15.335-7.479,21.111
	c-5.237,6.1-11.939,9.15-20.117,9.15c-8.506,0-15.125-3.171-19.87-9.517v7.932h-9.759v-0.003H159.281z M187.224,106.578
	c-5.452,0-9.928,2.035-13.423,6.1c-3.499,4.069-5.248,8.908-5.248,14.52c0,5.94,1.629,10.981,4.882,15.133
	c3.495,4.471,8.135,6.709,13.911,6.709c6.018,0,10.779-2.155,14.278-6.468c3.249-4.065,4.878-9.15,4.878-15.252
	c0-5.938-1.749-10.878-5.245-14.827C197.756,108.55,193.077,106.578,187.224,106.578z"/>
<path fill="#FFFFFF" d="M251.771,108.164l-8.173,4.272c-1.71-3.906-4.311-5.858-7.81-5.858c-1.788,0-3.417,0.609-4.882,1.831
	c-1.464,1.218-2.195,2.726-2.195,4.515c0,2.847,2.316,5.287,6.955,7.318c7.647,3.499,11.877,5.533,12.688,6.105
	c4.64,3.171,6.956,7.522,6.956,13.056c0,5.37-1.891,9.822-5.675,13.361c-3.78,3.538-8.357,5.308-13.727,5.308
	c-4.8,0-8.986-1.281-12.568-3.842s-6.144-6.119-7.686-10.677l8.662-3.66c2.765,6.1,6.67,9.15,11.712,9.15
	c2.686,0,4.901-0.813,6.651-2.441c1.749-1.625,2.624-3.741,2.624-6.344c0-3.497-2.238-6.346-6.714-8.541
	c-4.147-1.953-8.295-3.906-12.442-5.858c-4.476-2.927-6.713-6.953-6.713-12.079c0-4.717,1.668-8.602,5.002-11.652
	c3.335-3.052,7.362-4.577,12.083-4.577c3.249,0,6.284,0.996,9.088,2.989C248.416,102.532,250.47,105.074,251.771,108.164z"/>
<path fill="#FFFFFF" d="M267.509,100.111v10.126c2.043-3.495,5.069-6.262,9.072-8.295c4.007-2.035,8.178-3.05,12.513-3.05
	c8.416,0,15.243,2.927,20.475,8.784c4.987,5.614,7.479,12.649,7.479,21.112c0,8.377-2.535,15.293-7.6,20.741
	c-5.069,5.452-11.774,8.176-20.112,8.176c-9.811,0-17.086-3.661-21.826-10.981v42.707h-5.611v-89.32H267.509z M289.231,104.016
	c-6.916,0-12.407,2.562-16.473,7.686c-3.827,4.719-5.737,10.657-5.737,17.816c0,6.67,2.074,12.183,6.225,16.534
	c4.147,4.352,9.556,6.528,16.227,6.528c6.424,0,11.755-2.359,15.985-7.077c3.984-4.554,5.979-10.087,5.979-16.594
	c0-6.752-2.035-12.587-6.1-17.511C301.267,106.477,295.897,104.016,289.231,104.016z"/>
<path fill="#FFFFFF" d="M328.522,55.817v100.668h-5.616V55.817H328.522z"/>
<path fill="#FFFFFF" d="M369.153,100.111h5.611v33.799c0,7.812-1.144,13.221-3.428,16.229c-3.835,5.046-9.462,7.567-16.886,7.567
	c-7.428,0-13.06-2.521-16.891-7.567c-2.284-3.007-3.429-8.416-3.429-16.229v-33.799h5.616v31.848c0,6.67,0.765,11.47,2.308,14.397
	c2.187,4.15,6.319,6.223,12.396,6.223c6.073,0,10.204-2.074,12.392-6.223c1.539-2.927,2.312-7.727,2.312-14.397L369.153,100.111
	L369.153,100.111z"/>
<path fill="#FFFFFF" d="M411.37,107.92l-4.738,2.441c-1.941-4.228-5.221-6.344-9.834-6.344c-2.429,0-4.632,0.875-6.615,2.622
	c-1.984,1.751-2.976,3.803-2.976,6.163c0,3.661,2.359,6.508,7.08,8.543c4.389,1.871,8.823,3.741,13.297,5.612
	c4.718,3.01,7.077,7.405,7.077,13.177c0,5.126-1.753,9.336-5.264,12.63c-3.507,3.296-7.835,4.942-12.973,4.942
	c-4.733,0-8.877-1.342-12.427-4.028c-3.55-2.683-5.897-6.301-7.038-10.859l5.37-1.709c2.355,7.649,7.033,11.47,14.032,11.47
	c3.578,0,6.588-1.238,9.03-3.722c2.441-2.48,3.66-5.468,3.66-8.966c0-3.093-1.14-5.572-3.417-7.444
	c-1.464-1.138-3.987-2.359-7.564-3.66c-5.206-1.871-8.908-3.621-11.103-5.248c-3.582-2.685-5.37-6.141-5.37-10.372
	c0-4.147,1.503-7.564,4.515-10.248c3.01-2.687,6.627-4.026,10.861-4.026c2.929,0,5.753,0.852,8.479,2.562
	C408.175,103.161,410.148,105.317,411.37,107.92z"/>
<path fill="#FFFFFF" d="M87.633,64.574c3.573,0,6.686,1.322,9.33,3.966c2.644,2.644,3.968,5.756,3.968,9.331
	c0,3.732-1.324,6.881-3.968,9.447c-2.644,2.568-5.756,3.851-9.33,3.851c-3.582,0-6.69-1.283-9.333-3.851
	c-2.644-2.566-3.964-5.715-3.964-9.447c0-3.575,1.32-6.688,3.964-9.331C80.943,65.896,84.052,64.574,87.633,64.574z"/>
</svg>
