<?xml version="1.0" encoding="UTF-8"?>
<svg width="256px" height="256px" viewBox="0 -25 256 256" fill="white" version="1.1" xmlns="http://www.w3.org/2000/svg" xmlns:xlink="http://www.w3.org/1999/xlink" preserveAspectRatio="xMidYMid">

    <path
        d="M19.4161 25C18.0567 25 16.5275 24.5761 15.0832 23.8979C11.0052 22.0328 7.69184 19.1503 4.97318 15.6744C3.44394 13.7245 2.25453 11.6051 1.4899 9.3161C1.06511 8.12921 0.895196 6.94232 1.06511 5.67065C1.15007 5.0772 1.40494 4.56854 1.74478 4.14465C2.5094 3.29687 3.18906 2.44909 3.95369 1.60131C4.54839 0.923089 5.48293 0.753533 6.1626 1.43176C7.60689 2.7882 8.96622 4.14465 10.3255 5.58587C10.8353 6.09454 10.8353 6.85754 10.3255 7.45098C9.90075 8.04443 9.39101 8.46832 8.88126 9.06176C8.03168 9.90954 8.03168 10.4182 8.88126 11.266C10.9203 13.3007 12.8743 15.2505 14.9133 17.2852C15.5929 17.9634 16.1027 17.9634 16.7824 17.37C17.2921 16.9461 17.7169 16.4374 18.2266 16.0135C19.0762 15.1658 19.9258 15.1658 20.7754 16.0135C21.9648 17.2004 23.1542 18.3873 24.3436 19.5742C25.3631 20.5068 25.1083 21.6937 24.1737 22.2871C23.4091 22.7958 22.7294 23.474 22.0498 24.1522C21.3701 24.7457 20.5205 25 19.4161 25Z"
        stroke="#222D71" stroke-miterlimit="10"></path>
</svg>