<?xml version="1.0" encoding="UTF-8"?>
<svg width="29px" height="30px" viewBox="0 0 29 30" version="1.1" xmlns="http://www.w3.org/2000/svg" xmlns:xlink="http://www.w3.org/1999/xlink">
    <!-- Generator: Sketch 53 (72520) - https://sketchapp.com -->
    <title>sea-transport-sailing-boat</title>
    <desc>Created with Sketch.</desc>
    <g id="Web-Wires" stroke="none" stroke-width="1" fill="none" fill-rule="evenodd" stroke-linecap="round" stroke-linejoin="round">
        <g id="Home-Copy-8" transform="translate(-731.000000, -5409.000000)" stroke="#2962D0" stroke-width="1.80000007">
            <g id="sea-transport-sailing-boat" transform="translate(731.000000, 5409.000000)">
                <path d="M0.90625,28.1094583 C2.89933129,28.3561342 4.89729047,27.6901478 6.34375,26.2969583 C7.38550451,27.4508311 8.86730916,28.109384 10.421875,28.109384 C11.9764408,28.109384 13.4582455,27.4508311 14.5,26.2969583 C15.5417545,27.4508311 17.0235592,28.109384 18.578125,28.109384 C20.1326908,28.109384 21.6144955,27.4508311 22.65625,26.2969583 C24.1027095,27.6901478 26.1006687,28.3561342 28.09375,28.1094583" id="Shape"></path>
                <path d="M26.2897083,24.494125 C27.0141659,23.827609 27.6008153,23.0254305 28.0164167,22.1330417 C28.1407368,21.8526563 28.1148022,21.528416 27.9474941,21.2713567 C27.7801861,21.0142974 27.4942107,20.8593057 27.1875,20.8594583 L1.8125,20.8594583 C1.5057893,20.8593057 1.21981392,21.0142974 1.05250587,21.2713567 C0.885197818,21.528416 0.859263211,21.8526563 0.983583333,22.1330417 C1.48590736,23.200366 2.22377905,24.139851 3.14166667,24.8807917" id="Shape"></path>
                <path d="M13.5937501,20.8594583 L13.59375,2.45291667 C13.5939348,1.79260261 13.1707344,1.20657037 12.5438677,0.999078595 C11.917001,0.791586819 11.2277314,1.00939342 10.8339167,1.53941667 L2.744125,14.0166667 C2.56149133,14.2954407 2.54660358,14.6519619 2.70535965,14.9449918 C2.86411572,15.2380216 3.17089581,15.4202715 3.50416667,15.4195417 L13.5913333,15.4050417" id="Shape"></path>
                <path d="M18.8874583,7.14245833 C18.6699904,6.80396125 18.2553874,6.64936631 17.8693887,6.762846 C17.4833901,6.87632569 17.2184212,7.23070787 17.21875,7.63304167 L17.2187497,17.2344583 L23.71475,17.2344583 C24.0461083,17.2338249 24.3507771,17.0526318 24.5095372,16.7617814 C24.6682972,16.470931 24.6559045,16.1166705 24.4772083,15.837625 L18.8874583,7.14245833 Z" id="Shape"></path>
            </g>
        </g>
    </g>
</svg>