<svg width="25" height="24" viewBox="0 0 25 24" fill="none" xmlns="http://www.w3.org/2000/svg">
<g clip-path="url(#clip0_47_110)">
<g clip-path="url(#clip1_47_110)">
<path d="M13.6909 23.6539H10.832L10.6209 14.4904C10.468 13.9017 9.08133 14.409 8.75351 14.1227C8.63485 14.0193 8.60468 13.6667 8.59362 13.5029C8.50111 12.1588 8.53027 10.2863 8.59362 8.92818C8.8239 4.03599 14.9328 3.64924 15.873 8.20389L15.8629 13.957C15.8499 14.0032 15.7352 14.1288 15.694 14.1519C15.2314 14.411 13.9674 13.8153 13.8508 14.6471L13.6899 23.6529L13.6909 23.6539Z" fill="#003366"/>
<path d="M19.7217 22.3561H17.3304L17.1755 14.5909C17.1574 14.3056 16.9262 14.169 16.6547 14.2021C16.6687 14.1057 16.7059 14.0193 16.709 13.9198C16.7622 12.199 16.8336 9.94279 16.709 8.25413C16.6818 7.89149 16.5692 7.51076 16.4646 7.16419C18.0323 5.60914 20.8379 6.38164 21.4754 8.47815C21.7529 9.39029 21.7449 12.6752 21.6483 13.7109C21.5558 14.7014 20.3371 13.8646 19.9529 14.3538C19.8755 14.4522 19.8333 15.0761 19.8252 15.2649C19.7488 16.8923 19.7548 18.6161 19.7217 20.2505C19.7076 20.9517 19.7367 21.6559 19.7237 22.3561H19.7217Z" fill="#003366"/>
<path d="M4.95656 22.3561C4.9445 21.7252 4.97164 21.0904 4.95857 20.4585C4.92137 18.7236 4.91634 16.8863 4.8007 15.1625C4.78058 14.8681 4.9093 14.3398 4.54327 14.2252C4.23757 14.1298 3.3225 14.2986 3.15055 14.1368C3.11032 14.0987 3.09222 13.9972 3.05904 13.944C3.08317 12.4793 2.93736 10.9042 3.0339 9.45058C3.17066 7.38622 4.88215 5.91455 6.97174 6.44998C7.19498 6.50724 8.05474 6.83874 8.07687 7.06175C8.08994 7.19536 7.83553 7.9096 7.81441 8.20092C7.68771 9.9167 7.75709 12.2242 7.81441 13.9711C7.81743 14.0565 7.87676 14.1911 7.86972 14.2001C7.86167 14.2102 7.71184 14.2333 7.63441 14.3046C7.42224 14.4995 7.52179 14.9827 7.5057 15.266C7.45039 16.2143 7.48156 17.1746 7.40011 18.1209L7.34983 22.3561H4.95857H4.95656Z" fill="#003366"/>
<path d="M12.0161 0.349302C13.6713 0.160445 14.8096 2.02289 13.8382 3.36397C12.5149 5.19025 9.7204 3.72963 10.4303 1.62107C10.6506 0.966098 11.3323 0.426652 12.0161 0.349302Z" fill="#003366"/>
<path d="M18.2023 2.01084C20.5343 1.67029 21.0451 4.98332 18.9455 5.45345C16.4949 6.00294 15.9659 2.33732 18.2023 2.01084Z" fill="#003366"/>
<path d="M5.82856 2.01088C8.18664 1.66631 8.66429 4.98436 6.57169 5.45349C4.13015 6.00097 3.60222 2.33535 5.82856 2.01088Z" fill="#003366"/>
</g>
</g>
<defs>
<clipPath id="clip0_47_110">
<rect width="23.99" height="23.99" fill="white" transform="translate(0.359863)"/>
</clipPath>
<clipPath id="clip1_47_110">
<rect width="23.99" height="23.99" fill="white" transform="translate(0.359863)"/>
</clipPath>
</defs>
</svg>
