<?xml version="1.0" encoding="UTF-8"?>
<svg width="24px" height="24px" viewBox="0 0 24 24" version="1.1" xmlns="http://www.w3.org/2000/svg" xmlns:xlink="http://www.w3.org/1999/xlink">
    <!-- Generator: Sketch 59.1 (86144) - https://sketch.com -->
    <title>Group</title>
    <desc>Created with Sketch.</desc>
    <g id="Web" stroke="none" stroke-width="1" fill="none" fill-rule="evenodd" stroke-linecap="round" stroke-linejoin="round">
        <g id="Program" transform="translate(-975.000000, -796.000000)" stroke="#2962D0" stroke-width="1.5">
            <g id="Group" transform="translate(975.000000, 796.000000)">
                <g id="Regular">
                    <circle id="Oval" cx="4.5" cy="6" r="2.25"></circle>
                    <path d="M4.5,9.75 C2.42893219,9.75 0.75,11.4289322 0.75,13.5 L0.75,15.75 L2.25,15.75 L3,21.75 L6,21.75" id="Shape"></path>
                    <circle id="Oval" cx="19.5" cy="6" r="2.25"></circle>
                    <path d="M19.5,9.75 C21.5710678,9.75 23.25,11.4289322 23.25,13.5 L23.25,15.75 L21.75,15.75 L21,21.75 L18,21.75" id="Shape"></path>
                    <circle id="Oval" cx="12" cy="3.75" r="3"></circle>
                    <path d="M17.25,13.5 C17.25,10.6005051 14.8994949,8.25 12,8.25 C9.10050506,8.25 6.75,10.6005051 6.75,13.5 L6.75,15.75 L9,15.75 L9.75,23.25 L14.25,23.25 L15,15.75 L17.25,15.75 L17.25,13.5 Z" id="Shape"></path>
                </g>
            </g>
        </g>
    </g>
</svg>