<svg width="25" height="24" viewBox="0 0 25 24" fill="none" xmlns="http://www.w3.org/2000/svg">
<g clip-path="url(#clip0_47_101)">
<g clip-path="url(#clip1_47_101)">
<path d="M14.9877 0.768778C15.0564 0.840677 15.0395 0.939539 15.0204 1.02829C14.939 1.41025 14.6451 1.98545 14.5119 2.3955C12.9399 7.23298 12.8712 11.7469 14.5807 16.5585C14.7403 17.009 15.0828 17.6348 15.1917 18.0403C15.2213 18.1504 15.2372 18.2662 15.2097 18.3796C15.1219 18.4257 15.0342 18.4538 14.9338 18.4358C14.679 18.3909 14.1958 18.1224 13.9041 18.0269C10.4344 16.8877 7.12015 16.8181 3.61349 17.8404C3.33122 17.9224 2.65568 18.2482 2.4379 18.2572C2.36813 18.2605 2.31104 18.2291 2.25607 18.1875C2.08163 17.9774 2.31844 16.3204 2.38082 15.9553C3.39042 10.0775 7.95003 4.27499 12.8839 1.58776C13.1862 1.42261 14.6229 0.68789 14.8534 0.708112C14.8936 0.711482 14.957 0.737321 14.9866 0.767654L14.9877 0.768778Z" fill="#003366"/>
<path d="M1.13209 18.9795C1.1712 18.9368 1.24837 18.9177 1.30441 18.9177C8.0196 20.0097 14.8659 20.2681 21.6435 19.7715C22.4807 19.7097 23.3307 19.5412 24.1659 19.5693C24.224 19.6277 24.2631 19.7052 24.26 19.7906C24.2536 19.9535 23.9724 20.6467 23.8847 20.8276C23.3751 21.8847 22.4141 22.8643 21.3675 23.2822L4.38185 23.2474C3.84903 23.1115 2.49479 21.4915 2.12583 20.977C1.92391 20.6961 1.70402 20.3557 1.52958 20.0546C1.44395 19.9063 1.09826 19.321 1.07394 19.2098C1.05914 19.1402 1.08557 19.0289 1.13209 18.9795Z" fill="#003366"/>
<path d="M15.6994 3.41339C15.7999 3.96724 15.802 4.53907 15.877 5.09741C16.543 10.0248 18.8445 13.8287 22.1588 17.2079C22.3797 17.4338 22.7804 17.7259 22.9707 17.9584C23.0299 18.0314 23.0415 18.055 23.0267 18.1572C21.3744 17.6832 19.6184 17.4293 17.9184 17.7708C17.5442 17.8461 17.0029 18.1078 16.6963 18.1449C16.617 18.1539 16.5092 18.1359 16.4616 18.0595C14.6116 13.4961 13.3187 8.12504 15.4975 3.41339H15.6994Z" fill="#003366"/>
</g>
</g>
<defs>
<clipPath id="clip0_47_101">
<rect width="23.99" height="23.99" fill="white" transform="translate(0.669922)"/>
</clipPath>
<clipPath id="clip1_47_101">
<rect width="23.99" height="23.99" fill="white" transform="translate(0.669922)"/>
</clipPath>
</defs>
</svg>
