<?xml version="1.0" encoding="UTF-8"?>
<svg width="27px" height="32px" viewBox="0 0 27 32" version="1.1" xmlns="http://www.w3.org/2000/svg" xmlns:xlink="http://www.w3.org/1999/xlink">
    <!-- Generator: Sketch 62 (91390) - https://sketch.com -->
    <title>Group</title>
    <desc>Created with Sketch.</desc>
    <g id="Old" stroke="none" stroke-width="1" fill="none" fill-rule="evenodd" stroke-linecap="round" stroke-linejoin="round">
        <g id="Home---Croatia" transform="translate(-434.000000, -2113.000000)" stroke="#2962D0" stroke-width="2">
            <g id="Group-23" transform="translate(406.000000, 2091.000000)">
                <g id="Group" transform="translate(29.000000, 22.000000)">
                    <g id="police-man-1">
                        <path d="M19.65,14.85 C19.1366699,18.2596298 16.092727,20.7898322 12.504125,20.7898322 C8.91552298,20.7898322 5.87158011,18.2596298 5.35825,14.85" id="Shape"></path>
                        <path d="M0.125,30.64908 C2.83552981,26.6293959 7.51274627,24.2346611 12.5,24.31308 C17.4872537,24.2346611 22.1644702,26.6293959 24.875,30.64908" id="Shape"></path>
                        <line x1="12.5" y1="30.69" x2="12.5" y2="24.31308" id="Shape"></line>
                        <path d="M20.75,8.91 C21.8469006,7.08342687 22.5484123,5.06307327 22.8125,2.97 C20.1505035,3.60784244 17.3387013,3.31150599 14.88425,2.13444 L12.5,0.99 L10.11575,2.13444 C7.66129868,3.31150599 4.84949645,3.60784244 2.1875,2.97 C2.45280571,5.06281022 3.15423818,7.08293574 4.25,8.91 L20.75,8.91 Z" id="Shape"></path>
                        <path d="M4.32425,8.91 C4.82475,12.26676 8.86175,12.87 12.5,12.87 C16.13825,12.87 20.17525,12.26676 20.67575,8.91 L4.32425,8.91 Z" id="Shape"></path>
                        <path d="M12.5,4.95 C12.2152282,4.95 11.984375,5.17161905 11.984375,5.445 C11.984375,5.71838095 12.2152282,5.94 12.5,5.94 C12.7847718,5.94 13.015625,5.71838095 13.015625,5.445 C13.015625,5.17161905 12.7847718,4.95 12.5,4.95 L12.5,4.95" id="Shape"></path>
                    </g>
                </g>
            </g>
        </g>
    </g>
</svg>