<svg width="36" height="24" viewBox="0 0 36 24" fill="none" xmlns="http://www.w3.org/2000/svg">
<g clip-path="url(#clip0_47_93)">
<g clip-path="url(#clip1_47_93)">
<path d="M35.9947 9.71368C36.0596 9.76925 35.4629 10.5182 35.3841 10.6189C33.683 12.8021 30.2207 16.6244 27.5776 17.4648C26.084 17.9394 22.9913 17.6731 21.2891 17.6812C20.0863 17.687 18.8558 17.6812 17.6541 17.6812L-0.000488281 17.6847L2.4294 14.6102C5.25442 12.706 8.77352 12.2059 12.1003 11.7938L35.9959 9.71484L35.9947 9.71368Z" fill="#003366"/>
<path d="M24.893 7.54785L23.119 7.7238L16.1816 7.98541C15.7656 8.08148 15.5281 8.36161 15.6138 8.80149C15.7448 9.47519 17.2569 9.12445 17.739 9.10824C19.4458 9.05152 21.1526 9.00869 22.8594 8.93808C24.0031 8.89062 25.6787 8.61165 26.7633 8.75634C27.1213 8.8038 27.6682 9.47404 27.8432 9.79931L12.1005 11.1872C10.1573 11.4176 8.21523 11.6931 6.33228 12.2267L8.59067 9.06194L6.33228 6.94128L11.7853 6.39259C12.17 6.35439 12.5559 6.33124 12.9418 6.3243L16.8537 6.25369C17.2233 6.24674 17.5941 6.25832 17.9637 6.28494C20.3148 6.45742 22.6868 6.68893 24.8942 7.54785H24.893Z" fill="#003366"/>
</g>
</g>
<defs>
<clipPath id="clip0_47_93">
<rect width="36" height="24" fill="white" transform="translate(-0.000488281)"/>
</clipPath>
<clipPath id="clip1_47_93">
<rect width="36" height="24" fill="white" transform="translate(-0.000488281)"/>
</clipPath>
</defs>
</svg>
