<svg width="79" height="32" viewBox="0 0 79 32" fill="none" xmlns="http://www.w3.org/2000/svg">
<g clip-path="url(#clip0_470_1155)">
<path d="M19.2734 26.0477C19.2951 25.9094 19.3187 25.7729 19.3422 25.6364C19.3132 25.7766 19.2915 25.9149 19.2734 26.0477Z" fill="#FFD119"/>
<path d="M19.2681 29.2732C19.3097 29.3119 19.3549 29.347 19.4037 29.3728C19.3802 29.3543 19.3332 29.3211 19.2681 29.2732Z" fill="#FFD119"/>
<path d="M19.3423 25.629C21.1586 16.5261 38.4224 29.3893 38.4224 29.3893C39.1569 29.7711 39.9366 28.9559 39.5422 28.2183C33.7605 17.3781 37.498 6.37006 39.8968 1.76879C40.2929 1.00529 39.468 0.186466 38.7353 0.619852C33.3498 3.79187 21.6597 12.111 19.3423 25.629Z" fill="url(#paint0_linear_470_1155)"/>
<path d="M0.347168 25.6327C2.05311 17.048 17.4862 27.9785 19.2608 29.2676C19.2645 29.2695 19.2663 29.2713 19.2681 29.2731C19.3332 29.3211 19.3802 29.3543 19.4037 29.3727C19.411 29.3764 19.4146 29.3801 19.4182 29.3838C19.4182 29.3856 19.42 29.3856 19.42 29.3856C19.4218 29.3856 19.4255 29.3893 19.4273 29.3893C19.7619 29.5627 20.1075 29.4889 20.3445 29.2861C19.5159 28.5392 19.0926 27.4953 19.2717 26.0642C19.2717 26.0587 19.2735 26.0532 19.2735 26.0476C19.2916 25.9149 19.3133 25.7765 19.3422 25.6364V25.629C15.3515 15.6648 18.6946 6.00306 20.9016 1.76879C21.2978 1.00529 20.4729 0.186466 19.7402 0.619852C14.3547 3.79187 2.66276 12.1129 0.347168 25.6327Z" fill="url(#paint1_linear_470_1155)"/>
<path d="M19.4272 29.3893C19.6914 29.5387 20.0333 29.5479 20.3227 29.3432C20.339 29.3322 20.3553 29.3211 20.3716 29.31C20.3625 29.3027 20.3535 29.2934 20.3444 29.2861C20.1075 29.4889 19.7619 29.5627 19.4272 29.3893Z" fill="#FFD119"/>
<path d="M19.2681 29.2732C19.3097 29.3119 19.3549 29.347 19.4037 29.3728C19.3802 29.3543 19.3332 29.3211 19.2681 29.2732Z" fill="#FFD119"/>
<path d="M20.3448 29.286C20.3539 29.2934 20.3629 29.3026 20.372 29.31C27.572 24.2717 34.5748 27.381 38.4227 29.3893C38.4227 29.3893 21.1589 16.526 19.3426 25.629V25.6364C19.3191 25.7729 19.2956 25.9093 19.2739 26.0476C19.2739 26.0532 19.2721 26.0587 19.2721 26.0642C19.093 27.4953 19.5163 28.5391 20.3448 29.286Z" fill="url(#paint2_linear_470_1155)"/>
<path d="M19.2734 26.0477C19.2951 25.9094 19.3187 25.7729 19.3422 25.6364C19.3132 25.7766 19.2915 25.9149 19.2734 26.0477Z" fill="#FFD119"/>
<path d="M0.00186075 28.5834C-0.0433656 29.3045 0.745382 29.7545 1.3279 29.3433C1.34418 29.3322 1.36046 29.3211 1.37674 29.3101C8.56954 24.2736 15.5688 27.3755 19.4184 29.3838C19.4148 29.3801 19.4112 29.3765 19.404 29.3728C19.3551 29.3469 19.3099 29.3119 19.2683 29.2732C19.2665 29.2713 19.2647 29.2695 19.2611 29.2676C17.4864 27.9786 2.05333 17.048 0.34739 25.6327V25.6364C0.323872 25.7729 0.300355 25.9094 0.278646 26.0477C0.278646 26.0532 0.276837 26.0587 0.276837 26.0643C0.150203 26.8849 0.0561324 27.7241 0.00186075 28.5834Z" fill="url(#paint3_linear_470_1155)"/>
<path d="M19.4037 29.3728C19.3802 29.3543 19.3332 29.3211 19.2681 29.2732C19.3097 29.3119 19.3549 29.347 19.4037 29.3728Z" fill="#FFD119"/>
</g>
<path d="M45.5161 1.75454H47.0375L48.7664 7.14338L50.4953 1.75454H52.0168L49.3835 9.5H48.1494L45.5161 1.75454ZM44.5905 1.75454H46.1651L46.4577 7.69131V9.5H44.5905V1.75454ZM51.3678 1.75454H52.9477V9.5H51.0752V7.69131L51.3678 1.75454ZM56.9294 8.05305V5.68046C56.9294 5.51733 56.9063 5.37724 56.8602 5.26021C56.8141 5.14318 56.7414 5.05274 56.6421 4.98891C56.5428 4.92152 56.4098 4.88783 56.2431 4.88783C56.1083 4.88783 55.9931 4.91088 55.8973 4.95699C55.8016 5.00309 55.7289 5.07225 55.6792 5.16446C55.6296 5.25666 55.6047 5.3737 55.6047 5.51555H53.812C53.812 5.24957 53.8705 5.00309 53.9876 4.77612C54.1081 4.5456 54.2784 4.34522 54.4983 4.17499C54.7217 4.00476 54.9877 3.87354 55.2962 3.78134C55.6083 3.68558 55.9558 3.6377 56.3389 3.6377C56.7964 3.6377 57.2042 3.71395 57.5624 3.86645C57.9241 4.01895 58.2096 4.2477 58.4189 4.55269C58.6281 4.85414 58.7327 5.23361 58.7327 5.6911V8.04773C58.7327 8.42365 58.754 8.70914 58.7966 8.9042C58.8391 9.0957 58.8994 9.26416 58.9774 9.40957V9.5H57.1794C57.0943 9.32268 57.0304 9.10634 56.9879 8.851C56.9489 8.59211 56.9294 8.32612 56.9294 8.05305ZM57.1475 5.98369L57.1581 6.94123H56.3655C56.1988 6.94123 56.0569 6.96428 55.9399 7.01039C55.8264 7.05649 55.7342 7.12033 55.6633 7.2019C55.5959 7.27992 55.5462 7.36858 55.5143 7.46788C55.4859 7.56718 55.4718 7.6718 55.4718 7.78174C55.4718 7.88813 55.4966 7.98389 55.5462 8.069C55.5994 8.15057 55.6704 8.21441 55.759 8.26051C55.8477 8.30662 55.947 8.32967 56.0569 8.32967C56.2555 8.32967 56.424 8.29243 56.5623 8.21796C56.7042 8.13993 56.8123 8.04595 56.8868 7.93601C56.9613 7.82607 56.9985 7.72322 56.9985 7.62747L57.3922 8.36159C57.3212 8.50345 57.2397 8.64708 57.1475 8.79248C57.0588 8.93789 56.9471 9.07265 56.8123 9.19678C56.6811 9.31736 56.5197 9.41666 56.3282 9.49468C56.1367 9.56916 55.9044 9.60639 55.6313 9.60639C55.2767 9.60639 54.9504 9.53369 54.6525 9.38829C54.3582 9.24288 54.1223 9.04073 53.945 8.78184C53.7677 8.5194 53.679 8.21796 53.679 7.8775C53.679 7.57959 53.7322 7.31361 53.8386 7.07954C53.9486 6.84548 54.1135 6.64687 54.3333 6.48374C54.5532 6.3206 54.8334 6.19647 55.1739 6.11136C55.5143 6.02624 55.9151 5.98369 56.3761 5.98369H57.1475ZM62.6239 7.88282C62.6239 7.78351 62.5902 7.6984 62.5229 7.62747C62.459 7.55299 62.3455 7.48561 62.1824 7.42532C62.0193 7.36149 61.7905 7.29765 61.4962 7.23381C61.216 7.17352 60.9518 7.09373 60.7035 6.99443C60.4588 6.89513 60.2443 6.77455 60.0598 6.63269C59.8754 6.49083 59.73 6.32237 59.6236 6.12732C59.5208 5.93226 59.4694 5.70884 59.4694 5.45704C59.4694 5.21233 59.5208 4.98181 59.6236 4.76548C59.73 4.5456 59.8843 4.35232 60.0864 4.18563C60.2921 4.0154 60.5422 3.88241 60.8365 3.78666C61.1309 3.68736 61.466 3.6377 61.8419 3.6377C62.3597 3.6377 62.8066 3.7175 63.1825 3.87709C63.5584 4.03313 63.8475 4.25302 64.0496 4.53673C64.2553 4.8169 64.3581 5.1414 64.3581 5.51023H62.5654C62.5654 5.36483 62.5406 5.2407 62.4909 5.13786C62.4448 5.03501 62.3686 4.95699 62.2622 4.90379C62.1558 4.84705 62.0139 4.81868 61.8366 4.81868C61.7125 4.81868 61.599 4.84173 61.4962 4.88783C61.3969 4.93394 61.3171 4.99777 61.2568 5.07934C61.1965 5.16091 61.1663 5.25666 61.1663 5.3666C61.1663 5.44463 61.1841 5.51555 61.2195 5.57939C61.2585 5.63968 61.3171 5.69642 61.3951 5.74962C61.4731 5.79927 61.5724 5.84537 61.693 5.88793C61.8136 5.92694 61.959 5.96241 62.1292 5.99433C62.5158 6.06526 62.8775 6.16633 63.2144 6.29755C63.5513 6.42877 63.8244 6.61496 64.0336 6.85612C64.2464 7.09727 64.3528 7.42178 64.3528 7.82962C64.3528 8.08496 64.2943 8.3208 64.1773 8.53714C64.0602 8.74992 63.8918 8.93789 63.6719 9.10102C63.452 9.26061 63.1878 9.38474 62.8793 9.4734C62.5707 9.56206 62.2232 9.60639 61.8366 9.60639C61.2869 9.60639 60.8223 9.50887 60.4429 9.31381C60.0634 9.11521 59.7761 8.86696 59.5811 8.56905C59.3896 8.26761 59.2938 7.96261 59.2938 7.65407H60.9642C60.9713 7.83139 61.0138 7.9768 61.0919 8.09028C61.1734 8.20377 61.2816 8.28711 61.4164 8.34031C61.5511 8.39351 61.7072 8.4201 61.8845 8.4201C62.0476 8.4201 62.1824 8.39705 62.2888 8.35095C62.3987 8.30484 62.4821 8.24278 62.5388 8.16476C62.5956 8.08319 62.6239 7.98921 62.6239 7.88282ZM68.1057 3.7441V4.98891H64.6373V3.7441H68.1057ZM65.3661 2.3131H67.1588V7.62215C67.1588 7.77465 67.1765 7.89345 67.212 7.97857C67.2475 8.06014 67.3078 8.11865 67.3929 8.15412C67.4815 8.18604 67.5986 8.202 67.744 8.202C67.8468 8.202 67.9319 8.20022 67.9993 8.19668C68.0667 8.18958 68.1305 8.18072 68.1908 8.17008V9.45212C68.0383 9.50177 67.8787 9.53901 67.7121 9.56384C67.5454 9.59221 67.3681 9.60639 67.1801 9.60639C66.7971 9.60639 66.469 9.5461 66.1959 9.42552C65.9264 9.30494 65.7207 9.11521 65.5789 8.85632C65.437 8.59743 65.3661 8.26051 65.3661 7.84558V2.3131ZM71.4862 9.60639C71.0181 9.60639 70.5996 9.53369 70.2308 9.38829C69.8619 9.23934 69.5499 9.03541 69.2945 8.77652C69.0427 8.51763 68.8494 8.21973 68.7147 7.88282C68.5835 7.5459 68.5178 7.18948 68.5178 6.81356V6.61141C68.5178 6.18938 68.5764 5.79927 68.6934 5.44108C68.8104 5.07934 68.9842 4.76371 69.2147 4.49417C69.4452 4.22464 69.7343 4.0154 70.0818 3.86645C70.4294 3.71395 70.8337 3.6377 71.2947 3.6377C71.7026 3.6377 72.0678 3.70331 72.3906 3.83453C72.7133 3.96575 72.9864 4.15371 73.2098 4.39842C73.4368 4.64313 73.6088 4.93925 73.7258 5.28681C73.8464 5.63436 73.9067 6.02447 73.9067 6.45714V7.18594H69.2041V6.06348H72.1565V5.92517C72.1601 5.73366 72.1264 5.57052 72.0554 5.43576C71.9881 5.30099 71.8887 5.19815 71.7575 5.12722C71.6263 5.05629 71.4667 5.02082 71.2788 5.02082C71.0837 5.02082 70.9223 5.06338 70.7947 5.1485C70.6705 5.23361 70.573 5.35064 70.5021 5.4996C70.4347 5.645 70.3868 5.81346 70.3585 6.00497C70.3301 6.19647 70.3159 6.39862 70.3159 6.61141V6.81356C70.3159 7.02635 70.3443 7.21963 70.401 7.3934C70.4613 7.56718 70.5464 7.71613 70.6564 7.84026C70.7698 7.96084 70.9046 8.05482 71.0607 8.1222C71.2202 8.18958 71.4011 8.22328 71.6033 8.22328C71.848 8.22328 72.0891 8.17717 72.3267 8.08496C72.5643 7.99276 72.7683 7.84026 72.9385 7.62747L73.7524 8.59565C73.6354 8.76234 73.4687 8.9237 73.2524 9.07974C73.0396 9.23579 72.7842 9.36346 72.4863 9.46276C72.1884 9.55852 71.8551 9.60639 71.4862 9.60639ZM76.3243 5.16977V9.5H74.5316V3.7441H76.2073L76.3243 5.16977ZM78.0266 3.70154L77.9947 5.3666C77.9238 5.35951 77.828 5.35064 77.7075 5.34C77.5869 5.32937 77.4858 5.32405 77.4042 5.32405C77.195 5.32405 77.0141 5.34887 76.8616 5.39852C76.7127 5.44463 76.5885 5.51555 76.4892 5.61131C76.3935 5.70352 76.3226 5.82055 76.2765 5.96241C76.2339 6.10427 76.2144 6.26918 76.2179 6.45714L75.8934 6.24435C75.8934 5.85779 75.9307 5.50669 76.0052 5.19105C76.0832 4.87187 76.1931 4.59702 76.335 4.3665C76.4768 4.13244 76.6488 3.95334 76.851 3.82921C77.0531 3.70154 77.2801 3.6377 77.5319 3.6377C77.6206 3.6377 77.7075 3.64302 77.7926 3.65366C77.8812 3.6643 77.9593 3.68026 78.0266 3.70154ZM48.5803 17.4413C48.5803 17.3207 48.5625 17.2125 48.5271 17.1168C48.4916 17.0175 48.426 16.9253 48.3302 16.8402C48.2345 16.755 48.0962 16.6699 47.9153 16.5848C47.738 16.4962 47.5039 16.4039 47.2131 16.3082C46.8726 16.1947 46.5446 16.067 46.2289 15.9252C45.9133 15.7798 45.6314 15.6113 45.3831 15.4198C45.1349 15.2247 44.938 14.9978 44.7926 14.7389C44.6472 14.4764 44.5745 14.1714 44.5745 13.8239C44.5745 13.4905 44.649 13.1909 44.798 12.9249C44.9469 12.6553 45.1544 12.4266 45.4204 12.2386C45.6899 12.0471 46.0055 11.9017 46.3673 11.8024C46.729 11.6996 47.1244 11.6481 47.5536 11.6481C48.121 11.6481 48.621 11.7474 49.0537 11.946C49.4899 12.1411 49.8304 12.4195 50.0751 12.7812C50.3233 13.1394 50.4475 13.5632 50.4475 14.0526H48.5909C48.5909 13.8576 48.5501 13.6856 48.4685 13.5366C48.3905 13.3877 48.2717 13.2706 48.1121 13.1855C47.9525 13.1004 47.7522 13.0579 47.511 13.0579C47.2769 13.0579 47.0801 13.0933 46.9205 13.1643C46.7609 13.2352 46.6403 13.3309 46.5588 13.4515C46.4772 13.5685 46.4364 13.698 46.4364 13.8399C46.4364 13.9569 46.4683 14.0633 46.5322 14.159C46.5996 14.2512 46.6935 14.3381 46.8141 14.4197C46.9382 14.5013 47.0872 14.5793 47.261 14.6538C47.4383 14.7282 47.6369 14.8009 47.8568 14.8719C48.2682 15.0031 48.6334 15.1503 48.9526 15.3134C49.2754 15.473 49.5467 15.6556 49.7665 15.8613C49.99 16.0635 50.1584 16.294 50.2719 16.5529C50.3889 16.8118 50.4475 17.1044 50.4475 17.4306C50.4475 17.7782 50.3801 18.0867 50.2453 18.3563C50.1105 18.6258 49.9173 18.8545 49.6655 19.0425C49.4137 19.2269 49.1122 19.367 48.7611 19.4628C48.41 19.5585 48.0181 19.6064 47.5855 19.6064C47.1883 19.6064 46.7964 19.5567 46.4098 19.4574C46.0268 19.3546 45.6792 19.1986 45.3672 18.9893C45.0551 18.7765 44.805 18.5052 44.6171 18.1754C44.4327 17.842 44.3405 17.4466 44.3405 16.9891H46.213C46.213 17.2161 46.2431 17.4076 46.3034 17.5636C46.3637 17.7197 46.4524 17.8456 46.5694 17.9413C46.6864 18.0335 46.8301 18.1009 47.0003 18.1435C47.1705 18.1825 47.3656 18.202 47.5855 18.202C47.8231 18.202 48.0146 18.1683 48.16 18.1009C48.3054 18.03 48.4118 17.9378 48.4792 17.8243C48.5466 17.7073 48.5803 17.5796 48.5803 17.4413ZM54.195 18.053V15.6805C54.195 15.5173 54.172 15.3772 54.1259 15.2602C54.0798 15.1432 54.0071 15.0527 53.9078 14.9889C53.8085 14.9215 53.6755 14.8878 53.5088 14.8878C53.374 14.8878 53.2588 14.9109 53.163 14.957C53.0673 15.0031 52.9946 15.0722 52.9449 15.1645C52.8953 15.2567 52.8704 15.3737 52.8704 15.5156H51.0777C51.0777 15.2496 51.1362 15.0031 51.2532 14.7761C51.3738 14.5456 51.5441 14.3452 51.7639 14.175C51.9874 14.0048 52.2533 13.8735 52.5619 13.7813C52.874 13.6856 53.2215 13.6377 53.6045 13.6377C54.062 13.6377 54.4699 13.714 54.8281 13.8665C55.1898 14.0189 55.4753 14.2477 55.6845 14.5527C55.8938 14.8541 55.9984 15.2336 55.9984 15.6911V18.0477C55.9984 18.4236 56.0197 18.7091 56.0622 18.9042C56.1048 19.0957 56.1651 19.2642 56.2431 19.4096V19.5H54.4451C54.3599 19.3227 54.2961 19.1063 54.2535 18.851C54.2145 18.5921 54.195 18.3261 54.195 18.053ZM54.4131 15.9837L54.4238 16.9412H53.6311C53.4645 16.9412 53.3226 16.9643 53.2056 17.0104C53.0921 17.0565 52.9999 17.1203 52.9289 17.2019C52.8616 17.2799 52.8119 17.3686 52.78 17.4679C52.7516 17.5672 52.7374 17.6718 52.7374 17.7817C52.7374 17.8881 52.7623 17.9839 52.8119 18.069C52.8651 18.1506 52.936 18.2144 53.0247 18.2605C53.1134 18.3066 53.2127 18.3297 53.3226 18.3297C53.5212 18.3297 53.6897 18.2924 53.828 18.218C53.9698 18.1399 54.078 18.046 54.1525 17.936C54.2269 17.8261 54.2642 17.7232 54.2642 17.6275L54.6578 18.3616C54.5869 18.5034 54.5053 18.6471 54.4131 18.7925C54.3245 18.9379 54.2128 19.0727 54.078 19.1968C53.9468 19.3174 53.7854 19.4167 53.5939 19.4947C53.4024 19.5692 53.1701 19.6064 52.897 19.6064C52.5424 19.6064 52.2161 19.5337 51.9182 19.3883C51.6238 19.2429 51.388 19.0407 51.2107 18.7818C51.0334 18.5194 50.9447 18.218 50.9447 17.8775C50.9447 17.5796 50.9979 17.3136 51.1043 17.0795C51.2142 16.8455 51.3791 16.6469 51.599 16.4837C51.8189 16.3206 52.0991 16.1965 52.4395 16.1114C52.78 16.0262 53.1807 15.9837 53.6418 15.9837H54.4131ZM58.7672 13.7441V19.5H56.9691V13.7441H58.7672ZM56.8627 12.2599C56.8627 12.0046 56.9549 11.7953 57.1393 11.6322C57.3237 11.469 57.5631 11.3875 57.8575 11.3875C58.1518 11.3875 58.3912 11.469 58.5756 11.6322C58.7601 11.7953 58.8523 12.0046 58.8523 12.2599C58.8523 12.5153 58.7601 12.7245 58.5756 12.8876C58.3912 13.0508 58.1518 13.1323 57.8575 13.1323C57.5631 13.1323 57.3237 13.0508 57.1393 12.8876C56.9549 12.7245 56.8627 12.5153 56.8627 12.2599ZM61.6476 11.329V19.5H59.8496V11.329H61.6476ZM64.5281 13.7441V19.5H62.73V13.7441H64.5281ZM62.6236 12.2599C62.6236 12.0046 62.7158 11.7953 62.9003 11.6322C63.0847 11.469 63.3241 11.3875 63.6184 11.3875C63.9128 11.3875 64.1522 11.469 64.3366 11.6322C64.521 11.7953 64.6132 12.0046 64.6132 12.2599C64.6132 12.5153 64.521 12.7245 64.3366 12.8876C64.1522 13.0508 63.9128 13.1323 63.6184 13.1323C63.3241 13.1323 63.0847 13.0508 62.9003 12.8876C62.7158 12.7245 62.6236 12.5153 62.6236 12.2599ZM67.2755 14.9729V19.5H65.4828V13.7441H67.1638L67.2755 14.9729ZM67.0628 16.4252L66.6425 16.4359C66.6425 15.9961 66.6957 15.6042 66.8021 15.2602C66.9085 14.9127 67.0592 14.6183 67.2543 14.3771C67.4493 14.136 67.6816 13.9533 67.9511 13.8292C68.2242 13.7015 68.5274 13.6377 68.8608 13.6377C69.1268 13.6377 69.3697 13.6767 69.5896 13.7547C69.813 13.8328 70.0045 13.9587 70.1641 14.1324C70.3273 14.3062 70.4514 14.5367 70.5365 14.824C70.6252 15.1077 70.6695 15.4588 70.6695 15.8773V19.5H68.8661V15.872C68.8661 15.6415 68.8342 15.4659 68.7704 15.3453C68.7065 15.2212 68.6143 15.1361 68.4938 15.09C68.3732 15.0439 68.226 15.0208 68.0522 15.0208C67.8678 15.0208 67.7118 15.0563 67.5841 15.1272C67.4564 15.1981 67.3536 15.2974 67.2755 15.4251C67.2011 15.5492 67.1461 15.6964 67.1106 15.8667C67.0787 16.0369 67.0628 16.2231 67.0628 16.4252ZM75.1618 13.7441H76.7897V19.2766C76.7897 19.8085 76.6673 20.2589 76.4226 20.6278C76.1779 21.0002 75.8357 21.2821 75.3959 21.4736C74.9597 21.6687 74.449 21.7662 73.8638 21.7662C73.6049 21.7662 73.3407 21.7325 73.0712 21.6651C72.8017 21.6013 72.5499 21.5055 72.3158 21.3778C72.0817 21.2502 71.8849 21.0924 71.7253 20.9044L72.4754 19.8511C72.6208 20.0142 72.8034 20.1525 73.0233 20.266C73.2432 20.3831 73.5021 20.4416 73.8 20.4416C74.0589 20.4416 74.2752 20.3955 74.449 20.3033C74.6263 20.2111 74.7611 20.0763 74.8533 19.899C74.9455 19.7252 74.9916 19.5142 74.9916 19.2659V15.1059L75.1618 13.7441ZM71.337 16.6912V16.5795C71.337 16.1433 71.3902 15.7461 71.4966 15.3879C71.6065 15.0261 71.7626 14.7158 71.9647 14.4569C72.1704 14.1945 72.4186 13.9924 72.7095 13.8505C73.0003 13.7086 73.3283 13.6377 73.6936 13.6377C74.0873 13.6377 74.41 13.714 74.6618 13.8665C74.9171 14.0154 75.121 14.2246 75.2735 14.4942C75.4296 14.7637 75.5502 15.0793 75.6353 15.4411C75.7239 15.7993 75.7984 16.1858 75.8587 16.6008V16.7338C75.7984 17.1239 75.7151 17.4927 75.6087 17.8403C75.5058 18.1843 75.3711 18.4893 75.2044 18.7552C75.0377 19.0212 74.8285 19.2305 74.5767 19.383C74.3284 19.5319 74.0305 19.6064 73.683 19.6064C73.3212 19.6064 72.9949 19.5337 72.7041 19.3883C72.4169 19.2429 72.1704 19.039 71.9647 18.7765C71.7626 18.5141 71.6065 18.2055 71.4966 17.8509C71.3902 17.4963 71.337 17.1097 71.337 16.6912ZM73.1297 16.5795V16.6912C73.1297 16.9075 73.1492 17.1079 73.1882 17.2923C73.2308 17.4767 73.2946 17.6399 73.3797 17.7817C73.4649 17.9201 73.5695 18.0282 73.6936 18.1062C73.8213 18.1843 73.9702 18.2233 74.1405 18.2233C74.3993 18.2233 74.6086 18.1683 74.7682 18.0584C74.9278 17.9484 75.043 17.7924 75.114 17.5902C75.1849 17.3881 75.215 17.1505 75.2044 16.8774V16.4571C75.2115 16.2231 75.1955 16.0174 75.1565 15.8401C75.1175 15.6592 75.0554 15.5085 74.9703 15.3879C74.8888 15.2673 74.7788 15.1769 74.6405 15.1166C74.5057 15.0527 74.3426 15.0208 74.1511 15.0208C73.9844 15.0208 73.8372 15.0598 73.7096 15.1379C73.5819 15.2159 73.4755 15.3258 73.3904 15.4677C73.3053 15.606 73.2397 15.7709 73.1935 15.9624C73.151 16.1504 73.1297 16.3561 73.1297 16.5795ZM45.5161 21.7545H47.0375L48.7664 27.1434L50.4953 21.7545H52.0168L49.3835 29.5H48.1494L45.5161 21.7545ZM44.5905 21.7545H46.1651L46.4577 27.6913V29.5H44.5905V21.7545ZM51.3678 21.7545H52.9477V29.5H51.0752V27.6913L51.3678 21.7545ZM56.9294 28.053V25.6805C56.9294 25.5173 56.9063 25.3772 56.8602 25.2602C56.8141 25.1432 56.7414 25.0527 56.6421 24.9889C56.5428 24.9215 56.4098 24.8878 56.2431 24.8878C56.1083 24.8878 55.9931 24.9109 55.8973 24.957C55.8016 25.0031 55.7289 25.0722 55.6792 25.1645C55.6296 25.2567 55.6047 25.3737 55.6047 25.5156H53.812C53.812 25.2496 53.8705 25.0031 53.9876 24.7761C54.1081 24.5456 54.2784 24.3452 54.4983 24.175C54.7217 24.0048 54.9877 23.8735 55.2962 23.7813C55.6083 23.6856 55.9558 23.6377 56.3389 23.6377C56.7964 23.6377 57.2042 23.714 57.5624 23.8665C57.9241 24.0189 58.2096 24.2477 58.4189 24.5527C58.6281 24.8541 58.7327 25.2336 58.7327 25.6911V28.0477C58.7327 28.4236 58.754 28.7091 58.7966 28.9042C58.8391 29.0957 58.8994 29.2642 58.9774 29.4096V29.5H57.1794C57.0943 29.3227 57.0304 29.1063 56.9879 28.851C56.9489 28.5921 56.9294 28.3261 56.9294 28.053ZM57.1475 25.9837L57.1581 26.9412H56.3655C56.1988 26.9412 56.0569 26.9643 55.9399 27.0104C55.8264 27.0565 55.7342 27.1203 55.6633 27.2019C55.5959 27.2799 55.5462 27.3686 55.5143 27.4679C55.4859 27.5672 55.4718 27.6718 55.4718 27.7817C55.4718 27.8881 55.4966 27.9839 55.5462 28.069C55.5994 28.1506 55.6704 28.2144 55.759 28.2605C55.8477 28.3066 55.947 28.3297 56.0569 28.3297C56.2555 28.3297 56.424 28.2924 56.5623 28.218C56.7042 28.1399 56.8123 28.046 56.8868 27.936C56.9613 27.8261 56.9985 27.7232 56.9985 27.6275L57.3922 28.3616C57.3212 28.5034 57.2397 28.6471 57.1475 28.7925C57.0588 28.9379 56.9471 29.0727 56.8123 29.1968C56.6811 29.3174 56.5197 29.4167 56.3282 29.4947C56.1367 29.5692 55.9044 29.6064 55.6313 29.6064C55.2767 29.6064 54.9504 29.5337 54.6525 29.3883C54.3582 29.2429 54.1223 29.0407 53.945 28.7818C53.7677 28.5194 53.679 28.218 53.679 27.8775C53.679 27.5796 53.7322 27.3136 53.8386 27.0795C53.9486 26.8455 54.1135 26.6469 54.3333 26.4837C54.5532 26.3206 54.8334 26.1965 55.1739 26.1114C55.5143 26.0262 55.9151 25.9837 56.3761 25.9837H57.1475ZM61.5015 21.329V29.5H59.7034V21.329H61.5015ZM65.5203 23.7441V24.9889H62.0519V23.7441H65.5203ZM62.7807 22.3131H64.5734V27.6222C64.5734 27.7746 64.5912 27.8935 64.6266 27.9786C64.6621 28.0601 64.7224 28.1187 64.8075 28.1541C64.8962 28.186 65.0132 28.202 65.1586 28.202C65.2615 28.202 65.3466 28.2002 65.414 28.1967C65.4813 28.1896 65.5452 28.1807 65.6055 28.1701V29.4521C65.453 29.5018 65.2934 29.539 65.1267 29.5638C64.96 29.5922 64.7827 29.6064 64.5947 29.6064C64.2117 29.6064 63.8837 29.5461 63.6106 29.4255C63.341 29.3049 63.1354 29.1152 62.9935 28.8563C62.8516 28.5974 62.7807 28.2605 62.7807 27.8456V22.3131ZM69.103 28.053V25.6805C69.103 25.5173 69.08 25.3772 69.0339 25.2602C68.9877 25.1432 68.915 25.0527 68.8157 24.9889C68.7164 24.9215 68.5835 24.8878 68.4168 24.8878C68.282 24.8878 68.1667 24.9109 68.071 24.957C67.9752 25.0031 67.9025 25.0722 67.8529 25.1645C67.8032 25.2567 67.7784 25.3737 67.7784 25.5156H65.9857C65.9857 25.2496 66.0442 25.0031 66.1612 24.7761C66.2818 24.5456 66.452 24.3452 66.6719 24.175C66.8953 24.0048 67.1613 23.8735 67.4699 23.7813C67.782 23.6856 68.1295 23.6377 68.5125 23.6377C68.97 23.6377 69.3779 23.714 69.7361 23.8665C70.0978 24.0189 70.3833 24.2477 70.5925 24.5527C70.8018 24.8541 70.9064 25.2336 70.9064 25.6911V28.0477C70.9064 28.4236 70.9277 28.7091 70.9702 28.9042C71.0128 29.0957 71.0731 29.2642 71.1511 29.4096V29.5H69.353C69.2679 29.3227 69.2041 29.1063 69.1615 28.851C69.1225 28.5921 69.103 28.3261 69.103 28.053ZM69.3211 25.9837L69.3318 26.9412H68.5391C68.3724 26.9412 68.2306 26.9643 68.1135 27.0104C68.0001 27.0565 67.9079 27.1203 67.8369 27.2019C67.7695 27.2799 67.7199 27.3686 67.688 27.4679C67.6596 27.5672 67.6454 27.6718 67.6454 27.7817C67.6454 27.8881 67.6702 27.9839 67.7199 28.069C67.7731 28.1506 67.844 28.2144 67.9327 28.2605C68.0213 28.3066 68.1206 28.3297 68.2306 28.3297C68.4292 28.3297 68.5976 28.2924 68.7359 28.218C68.8778 28.1399 68.986 28.046 69.0605 27.936C69.1349 27.8261 69.1722 27.7232 69.1722 27.6275L69.5658 28.3616C69.4949 28.5034 69.4133 28.6471 69.3211 28.7925C69.2325 28.9379 69.1207 29.0727 68.986 29.1968C68.8548 29.3174 68.6934 29.4167 68.5019 29.4947C68.3104 29.5692 68.0781 29.6064 67.805 29.6064C67.4504 29.6064 67.1241 29.5337 66.8262 29.3883C66.5318 29.2429 66.296 29.0407 66.1187 28.7818C65.9413 28.5194 65.8527 28.218 65.8527 27.8775C65.8527 27.5796 65.9059 27.3136 66.0123 27.0795C66.1222 26.8455 66.2871 26.6469 66.507 26.4837C66.7269 26.3206 67.0071 26.1965 67.3475 26.1114C67.688 26.0262 68.0887 25.9837 68.5498 25.9837H69.3211Z" fill="#002B5B"/>
<defs>
<linearGradient id="paint0_linear_470_1155" x1="29.672" y1="29.4502" x2="29.672" y2="0.796893" gradientUnits="userSpaceOnUse">
<stop stop-color="#F37C27"/>
<stop offset="1" stop-color="#FFDF17"/>
</linearGradient>
<linearGradient id="paint1_linear_470_1155" x1="10.6769" y1="29.4502" x2="10.6769" y2="0.796893" gradientUnits="userSpaceOnUse">
<stop stop-color="#F37C27"/>
<stop offset="1" stop-color="#FFDF17"/>
</linearGradient>
<linearGradient id="paint2_linear_470_1155" x1="28.8275" y1="29.4502" x2="28.8275" y2="23.0564" gradientUnits="userSpaceOnUse">
<stop stop-color="#EA8C3D"/>
<stop offset="1" stop-color="#FF4C27"/>
</linearGradient>
<linearGradient id="paint3_linear_470_1155" x1="9.70925" y1="29.4502" x2="9.70925" y2="23.0564" gradientUnits="userSpaceOnUse">
<stop stop-color="#EA8C3D"/>
<stop offset="1" stop-color="#FF4C27"/>
</linearGradient>
<clipPath id="clip0_470_1155">
<rect width="40" height="29" fill="white" transform="translate(0 0.5)"/>
</clipPath>
</defs>
</svg>
